<svg width="748" height="117" viewBox="0 0 748 117" fill="none" xmlns="http://www.w3.org/2000/svg">
<path d="M646.423 112.562C646.423 112.972 646.193 113.234 646.001 113.56C645.81 113.886 645.823 114.468 645.484 114.667C645.146 114.865 644.68 115.057 644.271 115.057C643.863 115.057 643.582 114.52 643.256 114.328C642.931 114.136 642.727 113.912 642.529 113.573C642.331 113.234 642.28 112.972 642.28 112.562C642.28 112.153 642.114 111.75 642.305 111.417C642.497 111.085 642.797 110.778 643.141 110.58C643.486 110.381 643.876 110.432 644.284 110.432C644.693 110.432 644.942 110.656 645.267 110.848C645.593 111.04 645.861 111.187 646.059 111.526C646.257 111.865 646.429 112.147 646.429 112.556L646.423 112.562Z" stroke="#24425D" stroke-width="3" stroke-linecap="round" stroke-linejoin="round"/>
<path d="M77.2791 2C77.3301 2.18086 77.3194 2.40446 77.3758 2.57545C77.4322 2.74644 77.5505 2.89442 77.6149 3.06212C77.6794 3.22982 77.7358 3.40409 77.8084 3.56851C77.8809 3.73292 77.9481 3.90062 78.0287 4.05517C78.1093 4.20971 78.2302 4.33468 78.3216 4.48266C78.413 4.63063 78.4882 4.79175 78.5903 4.92657C78.6924 5.06139 78.6736 5.36392 78.7864 5.48887C78.8993 5.61383 79.09 5.64012 79.2136 5.74864C79.3372 5.85715 79.477 5.94264 79.6113 6.03142C79.7457 6.12021 79.8934 6.17283 80.0358 6.24517C80.1782 6.31751 80.3072 6.42603 80.4577 6.47535C80.6081 6.52468 80.772 6.44247 80.9252 6.47535C81.0784 6.50824 81.2127 6.62332 81.3685 6.63319C81.5244 6.64305 81.6695 6.58714 81.828 6.58385C81.9865 6.58056 82.1343 6.67923 82.2928 6.66279C82.4513 6.64635 82.5803 6.49178 82.7335 6.46219C82.8866 6.43259 83.0505 6.53125 83.2037 6.4885C83.3568 6.44575 83.5046 6.41616 83.6551 6.36354C83.8055 6.31093 83.9506 6.17282 84.1011 6.11363C83.9533 6.17611 83.7948 6.27147 83.6551 6.33723C83.5154 6.403 83.381 6.50823 83.2467 6.58714C83.1123 6.66606 82.9753 6.76142 82.8463 6.8502C82.7174 6.93899 82.5239 6.92585 82.4003 7.02778C82.2767 7.12972 82.1477 7.25466 82.0295 7.36647C81.9113 7.47827 81.8253 7.65584 81.7151 7.78408C81.605 7.91233 81.4706 8.02084 81.3712 8.15895C81.2718 8.29706 81.2476 8.51408 81.1616 8.66534C81.0757 8.8166 80.9144 8.91854 80.8446 9.08296C80.7747 9.24737 80.7559 9.44467 80.6995 9.61895C80.6431 9.79323 80.5007 9.93463 80.4604 10.1155C80.4201 10.2963 80.4254 10.4936 80.4013 10.6811C80.3771 10.8685 80.4039 11.0559 80.3932 11.2467C80.3824 11.4374 80.4577 11.6149 80.4577 11.8056C80.4577 11.9964 80.506 12.1641 80.5195 12.3515C80.5329 12.5389 80.4846 12.7198 80.506 12.9105C80.5275 13.1012 80.4308 13.2985 80.4604 13.486C80.4899 13.6734 80.678 13.8049 80.7156 13.9891C80.7532 14.1732 80.7076 14.3738 80.7532 14.5547C80.6995 14.3738 80.6941 14.1732 80.6377 14.0022C80.5813 13.8312 80.5087 13.6504 80.4469 13.4827C80.3851 13.315 80.2803 13.1571 80.2078 12.996C80.1352 12.8349 80.1352 12.6014 80.0546 12.4469C79.974 12.2923 79.8316 12.1641 79.743 12.0161C79.6543 11.8681 79.4958 11.7728 79.3937 11.6347C79.2916 11.4966 79.2701 11.2434 79.1599 11.1184C79.0497 10.9934 78.8885 10.9112 78.7649 10.8027C78.6413 10.6942 78.4667 10.6712 78.3323 10.5791C78.198 10.487 78.0475 10.4542 77.9051 10.3818C77.7627 10.3095 77.6203 10.2865 77.4698 10.2339C77.3194 10.1812 77.2146 9.92475 77.0614 9.89515C76.9083 9.86556 76.7498 9.88529 76.5939 9.87213C76.4381 9.85898 76.2903 10.0563 76.1345 10.0629C75.984 10.0694 75.8255 9.90174 75.6669 9.92476C75.5084 9.94777 75.3875 10.1286 75.2317 10.1648C75.0839 10.1977 74.9254 10.1648 74.7722 10.2075C74.6191 10.2503 74.4659 10.2371 74.3127 10.293C74.1596 10.3489 73.9796 10.4936 73.8291 10.5594C73.9769 10.4936 74.1865 10.4114 74.3262 10.3391C74.4659 10.2667 74.6352 10.247 74.7722 10.1681C74.9092 10.0892 74.9845 9.83925 75.1161 9.75047C75.2478 9.66168 75.4359 9.66497 75.5622 9.56633C75.6884 9.46768 75.7368 9.2112 75.855 9.10269C75.9732 8.99417 76.2177 9.0435 76.3279 8.91854C76.4381 8.79359 76.4193 8.49764 76.5214 8.35953C76.6235 8.22142 76.7632 8.12607 76.8545 7.97481C76.9459 7.82355 77.1474 7.75119 77.2227 7.59007C77.2979 7.42894 77.3543 7.23494 77.4134 7.06395C77.4725 6.89296 77.3436 6.63977 77.3865 6.45563C77.4295 6.27148 77.666 6.14982 77.6929 5.96238C77.7197 5.77495 77.6929 5.57765 77.7036 5.38693C77.7143 5.19621 77.5961 5.01206 77.5934 4.82134C77.5908 4.63062 77.5585 4.45963 77.5451 4.26891C77.5316 4.07819 77.5021 3.91049 77.4752 3.71977C77.4484 3.52905 77.5478 3.32517 77.5128 3.13774C77.4779 2.95031 77.3516 2.80562 77.3086 2.62148C77.2656 2.43734 77.3382 2.20058 77.2871 2.01644L77.2791 2Z" stroke="#24425D" stroke-width="3" stroke-linecap="round" stroke-linejoin="round"/>
<path d="M24.7515 102.437C23.9509 101.969 23.656 102.469 22.8554 102.001C22.0548 101.532 22.2339 101.213 21.4333 100.744C20.6328 100.276 20.7276 100.105 19.927 99.6367C19.1264 99.1681 18.7051 99.9029 17.9045 99.4237C17.1039 98.9445 17.4094 98.4227 16.6089 97.9542C15.8083 97.4857 15.8715 97.3792 15.071 96.9106C14.2704 96.4421 14.2493 96.474 13.4487 95.9949C12.6482 95.5157 12.5007 95.7713 11.7001 95.3027C10.8996 94.8342 10.9838 94.6851 10.1833 94.2165C9.38271 93.748 9.18258 94.0888 8.38201 93.6202C7.58144 93.1517 7.78157 92.8003 6.981 92.3318C6.18043 91.8632 6.09618 92.0123 5.28508 91.5331C4.47398 91.0539 4.70571 90.6812 3.89461 90.202C3.08351 89.7229 2.72537 90.3511 1.9248 89.8826" stroke="#24425D" stroke-width="3" stroke-linecap="round" stroke-linejoin="round"/>
<path d="M4.20703 102.437C5.03824 101.86 5.29014 102.122 6.12135 101.555C6.95255 100.989 7.14146 101.178 7.97267 100.611C8.80387 100.044 8.79126 100.033 9.60988 99.456C10.4285 98.8787 10.1766 98.6163 11.0078 98.0494C11.839 97.4826 11.5116 97.1466 12.3302 96.5798C13.1488 96.0129 13.2496 96.0969 14.0682 95.5196C14.8868 94.9422 14.7986 94.8478 15.6298 94.2809C16.461 93.7141 16.5114 93.7665 17.3426 93.1892C18.1738 92.6118 18.2871 92.7273 19.1183 92.1605C19.9495 91.5936 20.2392 91.877 21.0704 91.2997C21.9016 90.7224 21.6372 90.4599 22.4684 89.8826" stroke="#24425D" stroke-width="3" stroke-linecap="round" stroke-linejoin="round"/>
<path d="M15.621 110.427C15.4939 109.53 15.3082 109.562 15.1811 108.665C15.054 107.769 14.7314 107.822 14.6141 106.925C14.4967 106.029 14.6141 106.007 14.487 105.121C14.3599 104.235 14.6043 104.182 14.487 103.296C14.3697 102.41 14.2035 102.431 14.0862 101.535C13.9689 100.638 13.7929 100.67 13.6658 99.7733C13.5387 98.8767 13.3921 98.9087 13.2748 98.012C13.1575 97.1154 13.4898 97.062 13.3627 96.176C13.2357 95.29 13.0695 95.3113 12.9522 94.4147C12.8349 93.518 12.8349 93.518 12.7078 92.6213C12.5807 91.7246 12.395 91.7567 12.2776 90.86C12.1603 89.9633 12.3754 89.9313 12.2581 89.0346C12.1408 88.138 12.131 88.138 12.0039 87.2413C11.8768 86.3446 12.0235 86.3233 11.8964 85.4266C11.7693 84.5299 11.2903 84.6046 11.173 83.708C11.0557 82.8113 11.173 82.79 11.0557 81.8933" stroke="#24425D" stroke-width="3" stroke-linecap="round" stroke-linejoin="round"/>
<path d="M728.64 24.8267C728.77 25.2048 728.743 25.6723 728.887 26.0299C729.031 26.3874 729.333 26.6968 729.498 27.0475C729.663 27.3981 729.807 27.7625 729.993 28.1063C730.178 28.45 730.35 28.8007 730.556 29.1238C730.762 29.447 731.071 29.7083 731.304 30.0177C731.538 30.3271 731.73 30.664 731.991 30.9458C732.252 31.2277 732.204 31.8603 732.492 32.1216C732.78 32.3828 733.268 32.4378 733.584 32.6647C733.9 32.8916 734.257 33.0704 734.6 33.256C734.943 33.4416 735.321 33.5517 735.685 33.7029C736.049 33.8542 736.378 34.0811 736.763 34.1842C737.147 34.2874 737.566 34.1155 737.958 34.1842C738.349 34.253 738.692 34.4936 739.091 34.5142C739.489 34.5349 739.86 34.418 740.265 34.4111C740.67 34.4042 741.048 34.6105 741.453 34.5761C741.858 34.5418 742.187 34.2186 742.579 34.1567C742.97 34.0948 743.389 34.3011 743.781 34.2117C744.172 34.1223 744.55 34.0604 744.934 33.9504C745.319 33.8404 745.689 33.5516 746.074 33.4279C745.696 33.5585 745.291 33.7579 744.934 33.8954C744.577 34.0329 744.234 34.253 743.89 34.418C743.547 34.583 743.197 34.7824 742.867 34.968C742.538 35.1536 742.043 35.1262 741.727 35.3393C741.412 35.5524 741.082 35.8137 740.78 36.0475C740.478 36.2812 740.258 36.6525 739.976 36.9207C739.695 37.1888 739.352 37.4157 739.098 37.7045C738.843 37.9932 738.782 38.447 738.562 38.7633C738.342 39.0796 737.93 39.2927 737.752 39.6365C737.573 39.9803 737.525 40.3928 737.381 40.7572C737.237 41.1216 736.873 41.4172 736.77 41.7954C736.667 42.1735 736.681 42.5861 736.619 42.978C736.557 43.3699 736.626 43.7618 736.598 44.1606C736.571 44.5593 736.763 44.9306 736.763 45.3294C736.763 45.7281 736.887 46.0788 736.921 46.4707C736.955 46.8626 736.832 47.2408 736.887 47.6396C736.941 48.0383 736.694 48.4509 736.77 48.8428C736.845 49.2347 737.326 49.5097 737.422 49.8947C737.518 50.2797 737.402 50.6992 737.518 51.0773C737.381 50.6992 737.367 50.2797 737.223 49.9222C737.079 49.5647 736.893 49.1865 736.735 48.8359C736.578 48.4852 736.31 48.1552 736.124 47.8183C735.939 47.4814 735.939 46.9932 735.733 46.6701C735.527 46.347 735.163 46.0788 734.936 45.7694C734.71 45.46 734.305 45.2606 734.044 44.9719C733.783 44.6831 733.728 44.1537 733.446 43.8924C733.165 43.6311 732.753 43.4592 732.437 43.2324C732.121 43.0055 731.675 42.9573 731.332 42.7648C730.988 42.5723 730.604 42.5036 730.24 42.3523C729.876 42.201 729.512 42.1529 729.127 42.0429C728.743 41.9329 728.475 41.3966 728.084 41.3347C727.692 41.2728 727.287 41.3141 726.889 41.2866C726.491 41.2591 726.113 41.6716 725.715 41.6854C725.33 41.6991 724.925 41.3485 724.52 41.3966C724.115 41.4447 723.806 41.8229 723.408 41.8985C723.03 41.9673 722.625 41.8985 722.233 41.9879C721.842 42.0773 721.451 42.0498 721.059 42.1667C720.668 42.2835 720.208 42.5861 719.823 42.7236C720.201 42.5861 720.737 42.4142 721.094 42.2629C721.451 42.1117 721.883 42.0704 722.233 41.9054C722.584 41.7404 722.776 41.2178 723.112 41.0322C723.449 40.8465 723.929 40.8534 724.252 40.6472C724.575 40.4409 724.698 39.9046 725.001 39.6777C725.303 39.4508 725.928 39.554 726.209 39.2927C726.491 39.0314 726.443 38.4126 726.703 38.1239C726.964 37.8351 727.321 37.6357 727.555 37.3194C727.788 37.0032 728.303 36.8519 728.496 36.515C728.688 36.1781 728.832 35.7724 728.983 35.4149C729.134 35.0574 728.805 34.528 728.914 34.143C729.024 33.7579 729.629 33.5035 729.697 33.1116C729.766 32.7197 729.697 32.3072 729.725 31.9084C729.752 31.5097 729.45 31.1246 729.443 30.7258C729.436 30.327 729.354 29.9695 729.32 29.5707C729.285 29.172 729.21 28.8213 729.141 28.4226C729.072 28.0238 729.327 27.5975 729.237 27.2056C729.148 26.8137 728.825 26.5111 728.715 26.1261C728.606 25.7411 728.791 25.2461 728.66 24.861L728.64 24.8267Z" stroke="#24425D" stroke-width="3" stroke-linecap="round" stroke-linejoin="round"/>
</svg>